<svg xmlns="http://www.w3.org/2000/svg" width="512" height="512" viewBox="0 0 512 512">
  <defs>
    <radialGradient id="bg" cx="35%" cy="28%" r="90%">
      <stop offset="0" stop-color="#243866"/>
      <stop offset="0.55" stop-color="#0a1028"/>
      <stop offset="1" stop-color="#050714"/>
    </radialGradient>
    <linearGradient id="ring" x1="0" y1="0" x2="1" y2="1">
      <stop offset="0" stop-color="#58e6ff"/>
      <stop offset="1" stop-color="#c45cff"/>
    </linearGradient>
    <filter id="glow" x="-60%" y="-60%" width="220%" height="220%">
      <feGaussianBlur stdDeviation="12" result="b"/>
      <feMerge><feMergeNode in="b"/><feMergeNode in="SourceGraphic"/></feMerge>
    </filter>
  </defs>
  <rect width="512" height="512" rx="112" fill="url(#bg)"/>
  <circle cx="256" cy="256" r="154" fill="none" stroke="#58e6ff" stroke-opacity=".14" stroke-width="20"/>
  <path d="M132 276c18-101 71-156 151-156 52 0 94 23 123 68" fill="none" stroke="url(#ring)" stroke-width="34" stroke-linecap="round" filter="url(#glow)"/>
  <path d="M380 236c-18 101-71 156-151 156-52 0-94-23-123-68" fill="none" stroke="url(#ring)" stroke-width="34" stroke-linecap="round" filter="url(#glow)"/>
  <path d="M390 145l17 61-62-12z" fill="#c45cff"/>
  <path d="M122 367l-17-61 62 12z" fill="#58e6ff"/>
  <circle cx="256" cy="256" r="57" fill="#eaf6ff" filter="url(#glow)"/>
  <circle cx="256" cy="256" r="29" fill="#58e6ff"/>
  <circle cx="269" cy="241" r="10" fill="#ffffff" fill-opacity=".75"/>
</svg>
